<?xml version="1.0" encoding="utf-8"?>
<!-- Generator: Adobe Illustrator 25.2.0, SVG Export Plug-In . SVG Version: 6.00 Build 0)  -->
<svg version="1.1" id="Layer_1" xmlns="http://www.w3.org/2000/svg" xmlns:xlink="http://www.w3.org/1999/xlink" x="0px" y="0px"
	 viewBox="0 0 312.7 83.1" style="enable-background:new 0 0 312.7 83.1;" xml:space="preserve">
<style type="text/css">
	.st0{fill:none;}
	.st1{fill:#FBE752;}
</style>
<g>
	<path class="st0" d="M180.2,72.7h21.9v7.4h3v-7.4c-0.2,0-0.5,0-0.7,0L180.2,72.7z"/>
	<rect x="258.4" y="28.1" class="st0" width="1.2" height="11.9"/>
	<polygon class="st0" points="178.1,72.7 177.2,71.9 177.2,80.1 180.2,80.1 180.2,72.7 	"/>
	<path class="st0" d="M54.9,40h12V26.8h14.4c3.1-0.5,5.6-1.5,7.4-3C91,22,91.8,20.7,92,20c0.4-1.2,0.7-2.5,0.8-3.8
		c0.1-0.9,0-2.6-1-6c-0.8-2.1-2.1-3.7-4-4.9c-2-1.2-4.5-2-7.5-2.3H54.9v8.9V40z M66.9,10h11.9c0.8,0,1.6,0.3,2.6,1
		c1.1,0.8,1.7,2.1,1.8,4.2l0,0.1l0,0.1c-0.1,2.2-0.6,3.6-1.7,4.3c-0.9,0.5-1.8,0.8-2.6,0.8H66.9V10z"/>
	<path class="st0" d="M79.9,17c0,0,0.3-0.3,0.3-1.7c-0.1-1.5-0.5-1.8-0.5-1.8C79.1,13,78.8,13,78.8,13l-8.9,0v4.4h8.9
		C79.1,17.4,79.5,17.2,79.9,17z"/>
	<path class="st0" d="M27.3,3c-4.6,0-7.1,2-7.9,6.2c-0.9,4.4,1.8,9.4,8,14.8c1.8,1.3,3.7,3.1,3,5c-0.7,1.9-3.4,2.1-6.1,2.1L3,31.1
		V40h34.5c6.8-1.1,7.7-4.8,7.7-7.4c0.1-4.5-2.8-9.2-8.6-14.1c-1.5-1.2-3.2-2.8-2.5-4.6c0.7-1.9,3.3-2,5.7-2l11.5,0V3H27.3z"/>
	<polygon class="st0" points="147.5,40 147.5,22.4 162,40 173.3,40 173.3,3 162.8,3 162.8,20.7 148.3,3 137,3 137,28.1 137,40 	"/>
	<path class="st0" d="M259.6,40h10.8V24.7L285.7,40h24v-8.9h-21.4l-5.1-6.2l2.3-0.5c3-0.7,5.3-1.6,6.8-2.8c1.5-1.1,2.5-2.5,3.1-4.1
		c0.6-1.6,0.5-4.1-0.1-7.2c-0.9-2-2.2-3.6-4.1-4.9c-1.9-1.3-4.4-2-7.5-2.3h-25.4v25.1h1.2V40z M270.4,10h11.9c0.8,0,1.6,0.3,2.6,1
		c1.1,0.8,1.7,2.1,1.8,4.2l0,0.1l0,0.1c-0.1,2.2-0.6,3.6-1.7,4.3c-0.9,0.5-1.8,0.8-2.6,0.8h-11.9V10z"/>
	<path class="st0" d="M283.4,17c0,0,0.3-0.3,0.3-1.7c-0.1-1.5-0.5-1.8-0.5-1.8c-0.6-0.4-0.8-0.5-0.8-0.5l-8.9,0v4.4h8.9
		C282.6,17.4,283,17.2,283.4,17z"/>
	<polygon class="st0" points="108.5,23.5 122.7,23.5 122.7,19.5 108.5,19.5 108.5,11.9 130.5,11.9 130.5,3 98,3 98,40 134,40 
		134,31.1 108.5,31.1 	"/>
	<rect x="180.2" y="72.7" class="st0" width="21.9" height="7.4"/>
	<polygon class="st0" points="62,77.6 50.4,48.3 36,48.3 51,80.1 73.9,80.1 89.1,48.3 73.8,48.3 	"/>
	<path class="st0" d="M219.3,80.1c8.7-1.1,8.8-5,8.9-6.3c0.1-3.7-3.1-7.8-9.6-12c-1.8-1.1-3.5-2.5-3-4.2c0.5-1.8,2.9-2.1,6.3-2
		l13.1,0v-7.4h-27.3c-5.2,0-8.2,1.7-9.1,5.3c-0.9,3.6,2.1,7.8,8.9,12.5c2.1,1.3,4,2.7,3.5,4.5c-0.5,1.7-2.7,2.1-6,2.1v7.4H219.3z"/>
	<polygon class="st0" points="108.4,65.7 124.4,65.7 124.4,62.6 108.4,62.6 108.4,55.6 133.2,55.6 133.2,48.3 96.2,48.3 96.2,80.1 
		137.1,80.1 137.1,72.7 108.4,72.7 	"/>
	<path class="st0" d="M172,66.9l2.9-0.5c3.4-0.6,6.1-1.4,7.8-2.5c1.7-1,2.8-2.1,3.5-3.5c0.6-1.3,0.5-3.3-0.2-5.9
		c-1-1.7-2.5-3.1-4.6-4.2c-2.2-1.1-5.1-1.8-8.6-2.1h-28.8v31.8h13.9V67l16.8,13.1h2.5v-8.2L172,66.9z M157.9,63.4V54h13.2
		c0.8,0,1.7,0.3,2.7,0.8c1.2,0.7,1.9,2,2.1,3.8l0,0.1l0,0.1c-0.1,2-0.7,3.3-2,3.9c-0.9,0.4-1.8,0.7-2.7,0.7H157.9z"/>
	<path class="st0" d="M171.1,57h-10.2v3.4h10.3c0.4,0,0.9-0.1,1.4-0.4c0.1,0,0.3-0.3,0.3-1.2c0-0.5-0.2-1.2-0.5-1.4
		C171.6,57,171.2,57,171.1,57z"/>
	<polygon class="st0" points="250.8,65.7 266.8,65.7 266.8,62.6 250.8,62.6 250.8,55.6 275.6,55.6 275.6,48.3 238.6,48.3 
		238.6,80.1 279.5,80.1 279.5,72.7 250.8,72.7 	"/>
	<path class="st0" d="M198.3,30.9c-1.4-0.1-2.8-0.4-4.1-0.7c-1.6-0.4-2.9-1.2-4-2.5c-1.1-1.3-1.7-3.3-1.8-6l0-0.1l0-0.1
		c0.2-2.8,0.8-4.8,1.8-6c1-1.2,2.2-2,3.5-2.4c1.2-0.4,2.6-0.7,4.1-0.9c1.5-0.2,3.6-0.3,6.6-0.3h11.5V3H199c-3.1,0-6.1,0.4-8.8,1.2
		c-2.7,0.8-5.1,1.9-7.2,3.4c-2,1.5-3.6,3.4-4.8,5.6c-1.1,2.2-1.7,4.8-1.7,7.7c0,4.1,1,7.7,2.9,10.5c1.9,2.8,4.6,5,7.9,6.4
		c3.4,1.5,7.3,2.2,11.6,2.2h16.9v-8.9h-11.5C201.7,31.1,199.7,31,198.3,30.9z"/>
	<polygon class="st0" points="234.1,16.5 248.3,16.5 248.3,26.5 234.1,26.5 234.1,28.1 255.4,28.1 255.4,14.9 234.1,14.9 	"/>
	<polygon class="st0" points="231.1,23.5 245.3,23.5 245.3,19.5 231.1,19.5 231.1,11.9 253.1,11.9 253.1,3 220.6,3 220.6,40 
		255.4,40 255.4,31.1 231.1,31.1 	"/>
	<path class="st0" d="M198.1,15.2c-1.3,0.2-2.4,0.4-3.4,0.8c-0.9,0.3-1.6,0.8-2.3,1.6c-0.4,0.5-0.9,1.6-1.1,4.1
		c0.1,2.5,0.7,3.6,1.1,4.1c0.7,0.8,1.5,1.3,2.5,1.6c1.2,0.3,2.4,0.5,3.7,0.6c1.3,0.1,3.2,0.2,5.8,0.2h13.2V14.9h-13.2
		C201.6,14.9,199.5,15,198.1,15.2z"/>
	<polygon class="st1" points="54.4,0 51.9,0 54.4,0 	"/>
	<path class="st1" d="M51.4,11.9l-11.5,0c-2.4-0.1-5,0.1-5.7,2c-0.7,1.8,1,3.4,2.5,4.6c5.8,4.9,8.7,9.7,8.6,14.1
		c-0.1,2.6-0.9,6.3-7.7,7.4H3v-8.9l21.3,0c2.6,0.1,5.4-0.1,6.1-2.1c0.7-1.9-1.2-3.6-3-5c-6.2-5.5-8.9-10.5-8-14.8
		C20.2,5,22.8,3,27.3,3h24h0.6V0H27.3c-6,0-9.7,3-10.9,8.6c-1.1,5.5,1.9,11.5,9,17.7l0.1,0.1c0.9,0.7,1.4,1.2,1.7,1.5
		c-0.5,0.1-1.3,0.2-2.9,0.2H0V43h37.8l0.1,0c8.4-1.4,10.3-6.4,10.4-10.3c0.1-5.4-3.1-11-9.7-16.5c-0.6-0.5-1-0.9-1.3-1.2
		c0.4-0.1,1.2-0.2,2.5-0.1h12.1v-3H51.4z"/>
	<path class="st1" d="M81.4,19.5c1.1-0.7,1.7-2.1,1.7-4.3l0-0.1l0-0.1c-0.1-2-0.7-3.4-1.8-4.2c-1-0.7-1.8-1-2.6-1H66.9v10.4h11.9
		C79.7,20.4,80.5,20.1,81.4,19.5z M69.9,13l8.9,0c0,0,0.3,0,0.8,0.5c0,0,0.4,0.4,0.5,1.8c0,1.4-0.3,1.7-0.3,1.7
		c-0.4,0.2-0.8,0.4-1,0.4h-8.9V13z"/>
	<path class="st1" d="M94.7,9.3l0-0.1c-1-2.7-2.8-4.9-5.3-6.5c-2.4-1.5-5.4-2.4-8.9-2.7L54.4,0v3h0.6h25.4c3,0.3,5.6,1,7.5,2.3
		c1.9,1.2,3.2,2.8,4,4.9c1,3.4,1.1,5.2,1,6c-0.1,1.4-0.4,2.6-0.8,3.8c-0.3,0.7-1,1.9-3.3,3.8c-1.8,1.5-4.3,2.5-7.4,3H66.9V40h-12
		V11.9h-0.6v3h-2.4V43h18V29.8h11.5l0.2,0c3.7-0.5,6.7-1.8,9-3.6c2.3-1.9,3.7-3.6,4.2-5.1c0.1-0.2,0.1-0.3,0.2-0.5V10.2
		C94.9,9.9,94.8,9.6,94.7,9.3z"/>
	<rect x="51.9" y="11.9" class="st1" width="2.4" height="3"/>
	<rect x="51.9" y="0" class="st1" width="2.4" height="3"/>
	<path class="st1" d="M98,40V3h32.5v8.9h-22v7.6h14.2v4h-14.2v7.6H134v-3h-22.5v-1.6h14.2v-10h-14.2v-1.6h22V0H95v10.2
		c0.7,2.7,1,4.8,0.8,6.3c-0.1,1.4-0.4,2.8-0.8,4V43h39v-3H98z"/>
	<path class="st1" d="M95,10.2v10.3c0.4-1.3,0.7-2.6,0.8-4C96,15,95.7,12.9,95,10.2z"/>
	<path class="st1" d="M175.6,11.8c0.2-0.4,0.4-0.8,0.7-1.2V0h-16.5v12.3L149.7,0H134v28.1h3V3h11.3l14.5,17.7V3h10.5v37H162
		l-14.5-17.7V40H137v3h13.5V30.7L160.6,43h15.7V32c-1.8-3.1-2.7-6.8-2.7-11.1C173.6,17.6,174.3,14.5,175.6,11.8z"/>
	<polygon class="st1" points="137,28.1 134,28.1 134,31.1 134,40 134,43 137,43 137,40 	"/>
	<path class="st1" d="M204.4,28.1c-2.6,0-4.5-0.1-5.8-0.2c-1.2-0.1-2.5-0.3-3.7-0.6c-1-0.3-1.8-0.8-2.5-1.6c-0.4-0.5-1-1.6-1.1-4.1
		c0.1-2.5,0.7-3.6,1.1-4.1c0.7-0.8,1.4-1.3,2.3-1.6c1-0.3,2.1-0.6,3.4-0.8c1.3-0.2,3.4-0.2,6.3-0.2h13.2V0H199
		c-3.4,0-6.6,0.4-9.6,1.3c-3,0.8-5.8,2.2-8.1,3.9c-2,1.5-3.7,3.4-5,5.5V32c0.2,0.4,0.4,0.8,0.7,1.1c2.2,3.3,5.4,5.8,9.2,7.5
		c3.8,1.6,8.1,2.4,12.8,2.4h18.6V28.1H204.4z M215.9,40H199c-4.3,0-8.2-0.7-11.6-2.2c-3.3-1.4-6-3.6-7.9-6.4
		c-1.9-2.8-2.9-6.4-2.9-10.5c0-2.9,0.6-5.5,1.7-7.7c1.1-2.2,2.7-4.1,4.8-5.6c2.1-1.5,4.5-2.7,7.2-3.4C193,3.4,195.9,3,199,3h16.9
		v8.9h-11.5c-3,0-5.2,0.1-6.6,0.3c-1.5,0.2-2.9,0.5-4.1,0.9c-1.3,0.5-2.5,1.3-3.5,2.4c-1.1,1.2-1.7,3.2-1.8,6l0,0.1l0,0.1
		c0.1,2.7,0.7,4.7,1.8,6c1.1,1.2,2.4,2.1,4,2.5c1.3,0.4,2.7,0.6,4.1,0.7c1.4,0.1,3.4,0.2,6.1,0.2h11.5V40z"/>
	<path class="st1" d="M175.6,11.8c-1.4,2.7-2,5.7-2,9.1c0,4.2,0.9,8,2.7,11.1V10.7C176.1,11.1,175.8,11.4,175.6,11.8z"/>
	<polygon class="st1" points="220.6,40 220.6,3 253.1,3 253.1,11.9 231.1,11.9 231.1,19.5 245.3,19.5 245.3,23.5 231.1,23.5 
		231.1,31.1 255.4,31.1 255.4,28.1 234.1,28.1 234.1,26.5 248.3,26.5 248.3,16.5 234.1,16.5 234.1,14.9 255.4,14.9 255.4,0 218.9,0 
		218.9,14.9 217.6,14.9 217.6,28.1 218.9,28.1 218.9,43 255.4,43 255.4,40 	"/>
	<polygon class="st1" points="256.1,0 255.4,0 256.1,0 	"/>
	<rect x="217.6" class="st1" width="1.3" height="14.9"/>
	<rect x="217.6" y="28.1" class="st1" width="1.3" height="14.9"/>
	<rect x="255.4" y="31.1" class="st1" width="1.2" height="8.9"/>
	<path class="st1" d="M285,19.5c1.1-0.7,1.7-2.1,1.7-4.3l0-0.1l0-0.1c-0.1-2-0.7-3.4-1.8-4.2c-0.9-0.7-1.8-1-2.6-1h-11.9v10.4h11.9
		C283.2,20.4,284.1,20.1,285,19.5z M273.4,13l8.9,0c0,0,0.3,0,0.8,0.5c0,0,0.4,0.4,0.5,1.8c0,1.4-0.3,1.7-0.3,1.7
		c-0.4,0.2-0.8,0.4-1,0.4h-8.9V13z"/>
	<path class="st1" d="M289.7,28.1l-1.2-1.5c2.3-0.7,4.2-1.6,5.7-2.7c2-1.5,3.3-3.3,4.1-5.5c0.8-2.2,0.8-5.2-0.1-9l-0.1-0.3
		c-1.1-2.6-2.9-4.8-5.3-6.3c-2.3-1.5-5.3-2.5-8.9-2.8l-27.9,0v14.9h-0.7v13.2h3V3h25.4c3,0.3,5.5,1.1,7.5,2.3
		c1.9,1.2,3.2,2.8,4.1,4.9c0.7,3.2,0.7,5.6,0.1,7.2c-0.6,1.7-1.6,3-3.1,4.1c-1.5,1.2-3.8,2.1-6.8,2.8l-2.3,0.5l5.1,6.2h21.4V40h-24
		l-15.3-15.4V40h-10.8v3h13.8V31.9l11,11.1h28.2V28.1H289.7z"/>
	<polygon class="st1" points="258.4,40 258.4,28.1 255.4,28.1 255.4,31.1 256.6,31.1 256.6,40 255.4,40 255.4,43 259.6,43 259.6,40 
			"/>
	<rect x="255.4" y="0" class="st1" width="0.7" height="14.9"/>
	<path class="st1" d="M71.7,45.3L62,69.5l-9.6-24.2H31.3l17.8,37.8h26.7l17.4-36.5v-1.3H71.7z M73.9,80.1H51L36,48.3h14.4L62,77.6
		l11.7-29.3h15.3L73.9,80.1z"/>
	<path class="st1" d="M111.4,68.7h16v-9.1h-16v-1h24.8V45.3H93.8l-0.6,1.3v36.5h46.9V69.7h-28.8V68.7z M137.1,72.7v7.4H96.2V48.3h37
		v7.4h-24.8v7h16v3.1h-16v7H137.1z"/>
	<polygon class="st1" points="93.2,45.3 93.2,46.6 93.8,45.3 	"/>
	<path class="st1" d="M205.1,69.7h-0.7C204.7,69.7,204.9,69.7,205.1,69.7L205.1,69.7z"/>
	<path class="st1" d="M175.9,58.8L175.9,58.8l0-0.2c-0.1-1.9-0.8-3.1-2.1-3.8c-1-0.6-1.9-0.8-2.7-0.8h-13.2v9.4h13.3
		c0.8,0,1.7-0.2,2.7-0.7C175.1,62.1,175.8,60.8,175.9,58.8z M172.6,60c-0.5,0.2-1,0.4-1.4,0.4h-10.3V57h10.2c0.1,0,0.4,0,1.2,0.4
		c0.4,0.2,0.5,0.9,0.5,1.4C172.8,59.7,172.6,60,172.6,60z"/>
	<path class="st1" d="M174.7,80.1L157.9,67v13.1h-13.9V48.3h28.8c3.5,0.2,6.4,0.9,8.6,2.1c2.1,1,3.6,2.4,4.6,4.2
		c0.7,2.6,0.8,4.6,0.2,5.9c-0.6,1.4-1.8,2.6-3.5,3.5c-1.8,1-4.4,1.9-7.8,2.5l-2.9,0.5l5.2,5v-2.2h2.1l-1-0.9c2.5-0.6,4.4-1.3,6-2.2
		c2.2-1.3,3.8-2.9,4.7-4.9c0.9-2,0.9-4.7,0-8.2l-0.1-0.3c-1.3-2.3-3.3-4.2-5.9-5.5c-2.6-1.3-5.9-2.1-9.8-2.4l-32,0v37.8h19.9v-9.9
		l12.8,9.9h3.5v-3H174.7z"/>
	<path class="st1" d="M207.8,45.3c-8.3,0-11.1,4.1-12,7.6c-1.3,5,2,10.2,10.2,15.8l0.1,0.1c0.6,0.4,1.1,0.7,1.4,0.9
		c-0.5,0.1-1.2,0.1-2.3,0.1v3c3.2,0,5.5-0.4,6-2.1c0.5-1.8-1.4-3.2-3.5-4.5c-6.9-4.7-9.9-8.9-8.9-12.5c0.9-3.6,3.9-5.3,9.1-5.3H235
		v7.4l-13.1,0c-3.4-0.1-5.8,0.2-6.3,2c-0.5,1.7,1.3,3.1,3,4.2c6.5,4.2,9.7,8.3,9.6,12c0,1.3-0.2,5.1-8.9,6.3h-14.2v3h14.4l0.1,0
		c7.5-0.9,11.4-4,11.6-9.2c0.1-4.9-3.4-9.7-11-14.6c-0.4-0.2-0.7-0.4-0.9-0.6c0.6-0.1,1.4-0.1,2.5-0.1h13.7V45.3H207.8z"/>
	<polygon class="st1" points="202.1,80.1 180.2,80.1 177.2,80.1 177.2,83.1 205.1,83.1 205.1,80.1 	"/>
	<path class="st1" d="M177.2,71.9l0.9,0.8h2.1l24.2,0c0.3,0,0.5,0,0.7,0v-3c-0.2,0-0.4,0-0.7,0h-25.1h-2.1V71.9z"/>
	<path class="st1" d="M253.8,68.7h16v-9.1h-16v-1h24.8V45.3H238v13.4h-2.4v24.4h46.9V69.7h-28.8V68.7z M279.5,72.7v7.4h-40.9V48.3
		h37v7.4h-24.8v7h16v3.1h-16v7H279.5z"/>
	<rect x="235.6" y="45.3" class="st1" width="2.4" height="13.4"/>
</g>
</svg>
