<?xml version="1.0" encoding="utf-8"?>
<!-- Generator: Adobe Illustrator 25.2.0, SVG Export Plug-In . SVG Version: 6.00 Build 0)  -->
<svg version="1.1" id="Layer_1" xmlns="http://www.w3.org/2000/svg" xmlns:xlink="http://www.w3.org/1999/xlink" x="0px" y="0px"
	 viewBox="0 0 555.7 47.8" style="enable-background:new 0 0 555.7 47.8;" xml:space="preserve">
<style type="text/css">
	.st0{fill:none;}
	.st1{fill:#FBE752;}
</style>
<g>
	<polygon class="st0" points="384.9,27.1 399.6,27.1 399.6,22.6 384.9,22.6 384.9,14.7 407.7,14.7 407.7,4.9 373.9,4.9 373.9,44.8 
		411.3,44.8 411.3,35 384.9,35 	"/>
	<path class="st0" d="M444.8,16.1c-0.6-0.5-0.9-0.5-0.9-0.5l-9.3,0v4.9h9.3c0.2,0,0.5-0.1,1.1-0.4c0,0,0,0,0,0c0,0,0.3-0.3,0.4-1.9
		C445.3,16.6,444.9,16.2,444.8,16.1z"/>
	<path class="st0" d="M290.7,28.5L293,28c3.1-0.7,5.5-1.7,7.1-3c1.6-1.2,2.6-2.7,3.2-4.5c0.6-1.8,0.6-4.4-0.1-7.9
		c-0.9-2.2-2.3-3.9-4.3-5.3c-2-1.3-4.6-2.2-7.7-2.5h-26.3v39.9h12.5V28.4l15.7,16.4H318V35h-22.1L290.7,28.5z M277.4,23.5V12.6h12.3
		c0.8,0,1.7,0.4,2.7,1.1c1.1,0.8,1.7,2.2,1.8,4.4l0,0.1l0,0.1c-0.1,2.3-0.6,3.7-1.8,4.5c-0.9,0.6-1.8,0.9-2.7,0.9H277.4z"/>
	<polygon class="st0" points="353.3,4.9 342.3,41.6 331.5,4.9 318.4,4.9 332.4,44.8 353,44.8 367.3,4.9 	"/>
	<path class="st0" d="M450.1,35l-5.1-6.5l2.3-0.5c3.1-0.7,5.5-1.7,7.1-3c1.6-1.2,2.6-2.7,3.2-4.5c0.6-1.8,0.6-4.4-0.1-7.9
		c-0.9-2.2-2.3-3.9-4.3-5.3c-2-1.3-4.6-2.2-7.7-2.5h-26.3v39.9h12.5V28.4l15.7,16.4h6.9V35H450.1z M431.7,23.5V12.6h12.3
		c0.8,0,1.7,0.4,2.7,1.1c1.1,0.8,1.7,2.2,1.8,4.4l0,0.1l0,0.1c-0.1,2.3-0.6,3.7-1.8,4.5c-0.9,0.6-1.8,0.9-2.7,0.9H431.7z"/>
	<path class="st0" d="M56.4,15.1h-0.2v2.6h-3.1v27.1h12.5V30.6h14.8c3.2-0.5,5.8-1.6,7.7-3.2c2.4-2,3.2-3.4,3.5-4.2
		c0.4-1.3,0.7-2.7,0.9-4.1c0.1-1,0-2.9-1-6.5c-0.8-2.3-2.2-4-4.2-5.3c-2-1.3-4.6-2.1-7.8-2.4H56.1v10.1H56.4z M65.6,12.6h12.3
		c0.8,0,1.7,0.4,2.7,1.1c1.1,0.8,1.7,2.2,1.8,4.4l0,0.1l0,0.1c-0.1,2.3-0.6,3.7-1.8,4.5c-0.9,0.6-1.8,0.9-2.7,0.9H65.6V12.6z"/>
	<path class="st0" d="M201.5,34.8c-1.5-0.1-2.9-0.4-4.3-0.8c-1.6-0.4-3-1.3-4.1-2.7c-1.1-1.4-1.7-3.4-1.9-6.3l0-0.1l0-0.1
		c0.2-3,0.8-5.1,1.9-6.4c1-1.2,2.3-2.1,3.6-2.6c1.2-0.5,2.6-0.8,4.2-1c1.5-0.2,3.8-0.3,6.9-0.3h11.9V4.9h-17.5
		c-3.2,0-6.3,0.4-9.1,1.2c-2.8,0.8-5.3,2-7.4,3.7c-2.1,1.6-3.8,3.6-5,6.1c-1.2,2.4-1.8,5.2-1.8,8.3c0,4.5,1,8.3,3,11.3
		c2,3,4.8,5.4,8.2,6.9c3.6,1.6,7.6,2.4,12,2.4h17.5V35h-11.9C205,35,202.9,35,201.5,34.8z"/>
	<polygon class="st0" points="235.5,27.1 250.2,27.1 250.2,22.6 235.5,22.6 235.5,14.7 258.3,14.7 258.3,4.9 224.5,4.9 224.5,44.8 
		261.9,44.8 261.9,35 235.5,35 	"/>
	<path class="st0" d="M201.3,18c-1.3,0.2-2.5,0.4-3.5,0.8c-0.9,0.3-1.7,0.9-2.4,1.7c-0.4,0.5-1,1.7-1.2,4.5c0.1,2.7,0.7,3.9,1.2,4.5
		c0.7,0.9,1.6,1.4,2.6,1.7c1.2,0.3,2.5,0.6,3.8,0.7c1.3,0.1,3.4,0.2,6,0.2h13.7V17.7h-13.7C204.9,17.7,202.7,17.8,201.3,18z"/>
	<polygon class="st0" points="164.7,23.8 149.7,4.9 138,4.9 138,44.8 149,44.8 149,26 164,44.8 175.7,44.8 175.7,4.9 164.7,4.9 	"/>
	<polygon class="st0" points="108.6,27.1 123.3,27.1 123.3,22.6 108.6,22.6 108.6,14.7 131.4,14.7 131.4,4.9 97.6,4.9 97.6,44.8 
		135,44.8 135,35 108.6,35 	"/>
	<path class="st0" d="M290.5,16.1c-0.6-0.5-0.9-0.5-0.9-0.5l-9.3,0v4.9h9.3c0.2,0,0.5-0.1,1.1-0.4c0,0,0,0,0,0c0,0,0.3-0.3,0.4-1.9
		C291,16.6,290.6,16.2,290.5,16.1z"/>
	<rect x="53.1" y="4.9" class="st0" width="0.1" height="9.8"/>
	<path class="st0" d="M79,20.1c0,0,0.3-0.3,0.4-1.9c-0.1-1.6-0.5-2-0.6-2.1c-0.6-0.5-0.9-0.5-0.9-0.5l-9.3,0v4.9h9.3
		C78.2,20.5,78.5,20.4,79,20.1z"/>
	<polygon class="st0" points="523.2,27.1 537.9,27.1 537.9,22.6 523.2,22.6 523.2,14.7 546,14.7 546,4.9 512.3,4.9 512.3,44.8 
		549.6,44.8 549.6,35 523.2,35 	"/>
	<polygon class="st0" points="472.2,44.7 472.3,44.7 472.3,35 457.3,35 457.3,44.7 457.4,44.7 457.3,44.7 457.3,44.8 472.3,44.8 
		472.3,44.7 	"/>
	<path class="st0" d="M28.2,4.9c-4.7,0-7.4,2.1-8.3,6.7c-0.9,4.7,1.9,10.1,8.3,16c1.8,1.4,3.8,3.3,3.1,5.2c-0.7,2-3.5,2.2-6.2,2.1
		L3,35v9.8h35.8c5.4-0.9,8-3.5,8.1-8c0.1-4.8-2.9-9.9-8.9-15.2c-1.5-1.3-3.3-3-2.6-4.8c0.7-1.9,3.4-2.1,5.9-2l8.9,0V4.9H28.2z"/>
	<path class="st0" d="M475.4,44.7h-0.2v0.1h17.8c5.4-0.9,8-3.5,8.1-8c0.1-4.8-2.9-9.9-8.9-15.2c-1.5-1.3-3.3-3-2.6-4.8
		c0.7-1.9,3.4-2.1,5.9-2l11.9,0V4.9h-24.9c-4.7,0-7.4,2.1-8.3,6.7c-0.9,4.7,1.9,10.1,8.3,16c1.8,1.4,3.8,3.3,3.1,5.2
		c-0.7,2-3.6,2.2-6.2,2.1l-4.1,0v9.7H475.4z"/>
	<path class="st1" d="M50,15.1L50,15.1l0.1-0.4l-8.9,0c-2.5-0.1-5.2,0.1-5.9,2c-0.7,1.8,1,3.6,2.6,4.8c6,5.3,9,10.4,8.9,15.2
		c-0.1,4.5-2.7,7.1-8.1,8H3V35l22.1,0c2.7,0.1,5.5-0.1,6.2-2.1c0.7-1.9-1.3-3.8-3.1-5.2c-6.4-5.9-9.2-11.3-8.3-16
		c0.9-4.6,3.5-6.7,8.3-6.7h21.9V4.9H50h0.1V1.9H28.2c-6.2,0-10,3.2-11.2,9.2c-1.1,5.8,2,12.2,9.2,18.8l0.1,0.1
		c1.1,0.9,1.7,1.5,1.9,1.8c-0.4,0.1-1.3,0.3-3.1,0.2H0v15.8h39l0.1,0c8.7-1.4,10.6-6.7,10.7-10.9c0.1-5.7-3.2-11.6-10-17.6
		c-0.8-0.7-1.2-1.1-1.4-1.4c0.4-0.1,1.3-0.2,2.7-0.2h8.9L50,15.1L50,15.1z"/>
	<polygon class="st1" points="56.1,1.9 50.1,1.9 56.1,1.9 	"/>
	<path class="st1" d="M80.6,22.6c1.1-0.7,1.7-2.2,1.8-4.5l0-0.1l0-0.1c-0.1-2.1-0.7-3.6-1.8-4.4c-1-0.7-1.8-1.1-2.7-1.1H65.6v10.9
		h12.3C78.7,23.5,79.6,23.2,80.6,22.6z M68.6,15.6l9.3,0c0,0,0.3,0,0.9,0.5c0.1,0.1,0.5,0.4,0.6,2.1c0,1.6-0.4,1.9-0.4,1.9
		c-0.4,0.3-0.8,0.4-1.1,0.4h-9.3V15.6z"/>
	<path class="st1" d="M94.3,11.8l0-0.1c-1.1-2.9-2.9-5.2-5.4-6.9c-2.5-1.6-5.6-2.6-9.2-2.9l-23.5,0v2.9h0.2h-0.2v0.1h23.3
		c3.2,0.3,5.8,1.1,7.8,2.4c2,1.3,3.4,3,4.2,5.3c1,3.7,1.1,5.6,1,6.5c-0.1,1.5-0.4,2.8-0.9,4.1c-0.3,0.8-1.1,2.1-3.5,4.2
		c-1.9,1.6-4.5,2.7-7.7,3.2H65.6v14.2H53.1V17.7h-3v30.1h18.5V33.6h11.9l0.2,0c3.8-0.6,7-1.9,9.3-3.9c2.4-2,3.8-3.8,4.4-5.5
		c0.1-0.3,0.2-0.6,0.3-0.8V13.2C94.5,12.7,94.4,12.3,94.3,11.8z"/>
	<polygon class="st1" points="50.1,4.9 53.1,4.9 53.1,4.9 56.1,4.9 56.1,4.9 50.1,4.9 	"/>
	<rect x="50.1" y="15.1" class="st1" width="3" height="2.6"/>
	<rect x="50.1" y="1.9" class="st1" width="6.1" height="2.9"/>
	<rect x="50.1" y="14.7" class="st1" width="3" height="0.4"/>
	<path class="st1" d="M111.6,32v-1.9h14.7V19.6h-14.7v-1.9h22.8V1.9H94.6v11.2c0.7,2.7,0.9,4.8,0.8,6.3c-0.1,1.4-0.4,2.7-0.8,4v24.3
		H135V32H111.6z M135,44.8H97.6V4.9h33.8v9.8h-22.8v7.9h14.7v4.5h-14.7V35H135V44.8z"/>
	<path class="st1" d="M94.6,13.2v10.3c0.4-1.3,0.6-2.6,0.8-4C95.6,18,95.3,15.9,94.6,13.2z"/>
	<path class="st1" d="M178.1,14.6c0.2-0.4,0.4-0.7,0.6-1.1V1.9h-17v13.2L151.2,1.9H135V32h3v15.8h14V34.6l10.5,13.2h16.2V35.9
		c-1.8-3.3-2.7-7.2-2.7-11.6C176,20.7,176.7,17.4,178.1,14.6z M175.7,44.8H164L149,26v18.8h-11V4.9h11.7l15,18.8V4.9h11V44.8z"/>
	<rect x="135" y="32" class="st1" width="3" height="15.8"/>
	<path class="st1" d="M207.8,32c-2.7,0-4.7-0.1-6-0.2c-1.3-0.1-2.6-0.4-3.8-0.7c-1-0.3-1.9-0.8-2.6-1.7c-0.5-0.6-1-1.8-1.2-4.5
		c0.2-2.8,0.7-4,1.2-4.5c0.7-0.8,1.5-1.4,2.4-1.7c1-0.4,2.2-0.6,3.5-0.8c1.4-0.2,3.6-0.3,6.5-0.3h13.7V1.9h-19.3
		c-3.5,0-6.8,0.5-9.9,1.4c-3.1,0.9-6,2.3-8.4,4.2c-2.1,1.6-3.9,3.7-5.2,6v22.4c0.2,0.5,0.5,0.9,0.8,1.3c2.3,3.5,5.5,6.2,9.5,8
		c3.9,1.7,8.4,2.6,13.2,2.6h19.3V32H207.8z M219.7,44.8h-17.5c-4.4,0-8.5-0.8-12-2.4c-3.5-1.5-6.2-3.8-8.2-6.9c-2-3-3-6.8-3-11.3
		c0-3.1,0.6-5.9,1.8-8.3c1.2-2.4,2.9-4.5,5-6.1c2.1-1.6,4.6-2.9,7.4-3.7c2.8-0.8,5.9-1.2,9.1-1.2h17.5v9.8h-11.9
		c-3.1,0-5.3,0.1-6.9,0.3c-1.6,0.2-3,0.5-4.2,1c-1.4,0.5-2.6,1.4-3.6,2.6c-1.1,1.3-1.7,3.4-1.9,6.4l0,0.1l0,0.1
		c0.1,2.9,0.7,5,1.9,6.3c1.1,1.3,2.5,2.2,4.1,2.7c1.4,0.4,2.8,0.6,4.3,0.8c1.4,0.1,3.5,0.2,6.3,0.2h11.9V44.8z"/>
	<path class="st1" d="M178.1,14.6c-1.4,2.8-2.1,6.1-2.1,9.7c0,4.4,0.9,8.4,2.7,11.6V13.5C178.5,13.9,178.3,14.2,178.1,14.6z"/>
	<path class="st1" d="M238.5,32v-1.9h14.7V19.6h-14.7v-1.9h22.8V1.9h-38.5v15.8h-1.2V32h1.2v15.8h39.2V32H238.5z M261.9,44.8h-37.4
		V4.9h33.8v9.8h-22.8v7.9h14.7v4.5h-14.7V35h26.4V44.8z"/>
	<rect x="221.5" y="1.9" class="st1" width="1.2" height="15.8"/>
	<rect x="221.5" y="32" class="st1" width="1.2" height="15.8"/>
	<path class="st1" d="M295.9,30.3c2.5-0.8,4.5-1.8,6-2.9c2-1.6,3.4-3.5,4.2-5.9c0.8-2.3,0.8-5.5-0.1-9.6l-0.1-0.3
		c-1.1-2.8-3-5.1-5.4-6.7c-2.4-1.6-5.5-2.6-9.2-3l-29.5,0V32h3v15.8h15.5V35.9l11.5,11.9H321V32h-23.7L295.9,30.3z M318,44.8h-24.9
		l-15.7-16.4v16.4h-12.5V4.9h26.3c3.1,0.3,5.7,1.1,7.7,2.5c1.9,1.3,3.3,3,4.3,5.3c0.7,3.4,0.8,6.1,0.1,7.9c-0.6,1.8-1.7,3.3-3.2,4.5
		c-1.6,1.2-4,2.3-7.1,3l-2.3,0.5l5.1,6.5H318V44.8z"/>
	<path class="st1" d="M294.1,18.2L294.1,18.2l0-0.1c-0.1-2.1-0.7-3.6-1.8-4.4c-1-0.7-1.8-1.1-2.7-1.1h-12.3v10.9h12.3
		c0.9,0,1.8-0.3,2.7-0.9C293.5,21.9,294.1,20.5,294.1,18.2z M290.8,20.1c-0.5,0.3-0.9,0.4-1.1,0.4h-9.3v-4.9l9.3,0
		c0,0,0.3,0,0.9,0.5c0.1,0.1,0.5,0.4,0.6,2.1C291.1,19.8,290.8,20.1,290.8,20.1C290.8,20.1,290.8,20.1,290.8,20.1z"/>
	<rect x="261.9" y="32" class="st1" width="3" height="15.8"/>
	<path class="st1" d="M351.1,1.9l-8.7,29.2l-8.6-29.2h-19.6l16.1,45.9h24.9l15.8-44.3V1.9H351.1z M353,44.8h-20.6l-14-39.9h13.1
		l10.8,36.7l11-36.7h13.9L353,44.8z"/>
	<path class="st1" d="M387.9,30.1h14.7V19.6h-14.7v-1.9h22.8V1.9h-39.2l-0.6,1.6v44.3h43.4V32h-26.4V30.1z M411.3,35v9.8h-37.4V4.9
		h33.8v9.8h-22.8v7.9h14.7v4.5h-14.7V35H411.3z"/>
	<polygon class="st1" points="370.9,1.9 370.9,3.5 371.5,1.9 	"/>
	<path class="st1" d="M448.4,18.2L448.4,18.2l0-0.1c-0.1-2.1-0.7-3.6-1.8-4.4c-1-0.7-1.8-1.1-2.7-1.1h-12.3v10.9H444
		c0.9,0,1.8-0.3,2.7-0.9C447.8,21.9,448.4,20.5,448.4,18.2z M445,20.1c-0.5,0.3-0.9,0.4-1.1,0.4h-9.3v-4.9l9.3,0c0,0,0.3,0,0.9,0.5
		c0.1,0.1,0.5,0.4,0.6,2.1C445.4,19.8,445,20.1,445,20.1C445,20.1,445,20.1,445,20.1z"/>
	<path class="st1" d="M447.4,44.8l-15.7-16.4v16.4h-12.5V4.9h26.3c3.1,0.3,5.7,1.1,7.7,2.5c1.9,1.3,3.3,3,4.3,5.3
		c0.7,3.4,0.8,6.1,0.1,7.9c-0.6,1.8-1.7,3.3-3.2,4.5c-1.6,1.2-4,2.3-7.1,3l-2.3,0.5l5.1,6.5h4.2v-3h-2.7l-1.4-1.7
		c2.5-0.8,4.5-1.8,6-2.9c2-1.6,3.4-3.5,4.2-5.9c0.8-2.3,0.8-5.5-0.1-9.6l-0.1-0.3c-1.1-2.8-3-5.1-5.4-6.7c-2.4-1.6-5.5-2.6-9.2-3
		l-29.5,0v45.9h18.5V35.9l11.5,11.9h8.2v-3H447.4z"/>
	<rect x="472.3" y="44.7" class="st1" width="3" height="0.1"/>
	<path class="st1" d="M482.5,1.9c-6.2,0-10,3.2-11.2,9.2c-1.1,5.8,2,12.2,9.2,18.8l0.1,0.1c1.1,0.9,1.7,1.5,1.9,1.8
		c-0.4,0.1-1.4,0.3-3.1,0.2h-4.2v3h0.2h-0.2v0l4.1,0c2.7,0.1,5.5-0.1,6.2-2.1c0.7-1.9-1.3-3.8-3.1-5.2c-6.4-5.9-9.2-11.3-8.3-16
		c0.9-4.6,3.5-6.7,8.3-6.7h24.9v9.8l-11.9,0c-2.5-0.1-5.2,0.1-5.9,2c-0.7,1.8,1,3.6,2.6,4.8c6,5.3,9,10.4,8.9,15.2
		c-0.1,4.5-2.7,7.1-8.1,8h-17.8v3h18.1l0.1,0c8.7-1.4,10.6-6.7,10.7-10.9c0.1-5.7-3.2-11.6-10-17.6c-0.8-0.7-1.2-1.1-1.4-1.4
		c0.4-0.1,1.3-0.2,2.7-0.2h13.8V1.9H482.5z"/>
	<polygon class="st1" points="472.3,44.8 457.3,44.8 454.3,44.8 454.3,47.8 475.3,47.8 475.3,44.8 	"/>
	<path class="st1" d="M457.3,35l18,0v0h-3h3v-3h-21v3H457.3z M457.4,35h-3H457.4z"/>
	<path class="st1" d="M526.2,32v-1.9h14.7V19.6h-14.7v-1.9H549V1.9h-38.6v15.8h-1.2v30.1h43.4V32H526.2z M549.6,44.8h-37.4V4.9H546
		v9.8h-22.8v7.9h14.7v4.5h-14.7V35h26.4V44.8z"/>
	<rect x="509.3" y="1.9" class="st1" width="1.2" height="15.8"/>
</g>
</svg>
